<svg width="32" height="20" viewBox="0 0 32 20" fill="none" xmlns="http://www.w3.org/2000/svg">
<g clip-path="url(#clip0_1971_23125)">
<path d="M9.04937 7.32939C9.04937 7.72149 9.09186 8.03935 9.16598 8.27246C9.2601 8.53471 9.3734 8.78968 9.50497 9.03529C9.55796 9.12004 9.57909 9.20478 9.57909 9.27903C9.57909 9.3849 9.51559 9.49089 9.37785 9.59688L8.71038 10.0419C8.61502 10.1055 8.51965 10.1372 8.43477 10.1372C8.32891 10.1372 8.22291 10.0842 8.11692 9.98886C7.97404 9.83556 7.84633 9.66879 7.73556 9.49089C7.62957 9.3109 7.52358 9.10941 7.40708 8.8658C6.58054 9.8405 5.54219 10.3279 4.29201 10.328C3.40205 10.328 2.69209 10.0736 2.17287 9.56514C1.65378 9.05641 1.38892 8.37833 1.38892 7.53075C1.38892 6.63017 1.70677 5.89909 2.35311 5.34812C2.99933 4.79715 3.85765 4.52167 4.94897 4.52167C5.3092 4.52167 5.68005 4.55341 6.07203 4.60641C6.46413 4.65941 6.86674 4.74415 7.29059 4.83952V4.06607C7.29059 3.26074 7.12097 2.69927 6.79249 2.37079C6.45351 2.0423 5.88129 1.88331 5.06546 1.88331C4.69461 1.88331 4.31325 1.92581 3.92115 2.02118C3.52905 2.11655 3.14769 2.23304 2.77684 2.38141C2.60735 2.45553 2.48023 2.4979 2.40598 2.51915C2.33174 2.5404 2.27887 2.5509 2.23649 2.5509C2.08813 2.5509 2.01401 2.44491 2.01401 2.22242V1.7032C2.01401 1.53371 2.03526 1.40659 2.08813 1.33247C2.14112 1.25822 2.23649 1.1841 2.38486 1.10998C2.75567 0.919158 3.20065 0.760208 3.71979 0.633132C4.23913 0.49539 4.7901 0.431893 5.37282 0.431893C6.63375 0.431893 7.55557 0.717877 8.14892 1.2901C8.73163 1.86219 9.02837 2.73102 9.02837 3.89658V7.32939H9.04937ZM4.7476 8.93992C5.09734 8.93992 5.45757 8.87642 5.83892 8.74918C6.2204 8.62206 6.5595 8.38895 6.84549 8.07109C7.0151 7.86986 7.14222 7.64737 7.20572 7.39301C7.26934 7.13877 7.31171 6.83141 7.31171 6.47118V6.02621C6.99038 5.94805 6.66493 5.88792 6.33689 5.84609C6.00656 5.80418 5.67393 5.78293 5.34095 5.78247C4.63099 5.78247 4.11189 5.92021 3.76228 6.20632C3.41268 6.49243 3.24306 6.89503 3.24306 7.42476C3.24306 7.92273 3.37018 8.29358 3.63504 8.54794C3.8894 8.8128 4.26026 8.93992 4.7476 8.93992ZM13.2558 10.0842C13.065 10.0842 12.9379 10.0525 12.8532 9.97824C12.7684 9.91474 12.6942 9.76637 12.6307 9.56514L10.1408 1.37484C10.0771 1.16285 10.0453 1.02511 10.0453 0.95099C10.0453 0.781499 10.1301 0.686004 10.2997 0.686004H11.338C11.5392 0.686004 11.6771 0.717877 11.7512 0.791998C11.836 0.85562 11.8996 1.00399 11.9631 1.20523L13.7431 8.21946L15.396 1.20523C15.449 0.993362 15.5126 0.85562 15.5973 0.791998C15.6821 0.728502 15.8305 0.686129 16.0212 0.686129H16.8688C17.07 0.686129 17.2079 0.717877 17.2925 0.791998C17.3774 0.85562 17.4515 1.00399 17.4939 1.20523L19.1681 8.30421L21.001 1.20523C21.0644 0.993362 21.1387 0.85562 21.2128 0.791998C21.2976 0.728502 21.4353 0.686129 21.626 0.686129H22.6114C22.781 0.686129 22.8764 0.770875 22.8764 0.95099C22.8764 1.00399 22.8657 1.05698 22.8551 1.12048C22.8445 1.18398 22.8234 1.26885 22.781 1.38547L20.2274 9.57564C20.1639 9.78762 20.0897 9.92537 20.0049 9.98886C19.9201 10.0525 19.7824 10.0949 19.6024 10.0949H18.6912C18.4898 10.0949 18.3521 10.0631 18.2672 9.98886C18.1825 9.91474 18.1084 9.777 18.066 9.56514L16.4236 2.73102L14.7919 9.55439C14.739 9.76637 14.6754 9.90412 14.5907 9.97824C14.5059 10.0525 14.3576 10.0842 14.167 10.0842H13.2558ZM26.8709 10.3703C26.3199 10.3703 25.7689 10.3067 25.2392 10.1796C24.7094 10.0525 24.2963 9.91462 24.0208 9.75588C23.8512 9.66038 23.7346 9.55451 23.6923 9.45914C23.6511 9.3656 23.6294 9.26462 23.6287 9.16241V8.62206C23.6287 8.39958 23.7134 8.29358 23.8724 8.29358C23.9373 8.29382 24.0017 8.30459 24.0632 8.32546C24.1267 8.3467 24.222 8.38895 24.328 8.43132C24.7022 8.59602 25.0929 8.72035 25.4935 8.80218C25.9085 8.88633 26.3309 8.92891 26.7544 8.9293C27.4218 8.9293 27.9411 8.8128 28.3013 8.57969C28.6615 8.34658 28.8523 8.0076 28.8523 7.57312C28.8523 7.27651 28.7569 7.03278 28.5662 6.83141C28.3754 6.63005 28.0152 6.45006 27.4961 6.28044L25.9597 5.80372C25.1862 5.55998 24.6141 5.19975 24.2644 4.7229C23.9148 4.25668 23.7347 3.73758 23.7347 3.18662C23.7347 2.74164 23.83 2.34958 24.0208 2.01043C24.2114 1.67145 24.4658 1.37484 24.7836 1.14173C25.1015 0.897992 25.4617 0.717877 25.8856 0.59076C26.3093 0.463642 26.7543 0.410645 27.2205 0.410645C27.4536 0.410645 27.6973 0.421269 27.9304 0.453017C28.1742 0.484765 28.3967 0.527138 28.6192 0.569511C28.831 0.622508 29.0324 0.675505 29.2231 0.739126C29.4138 0.802623 29.5621 0.866161 29.6681 0.929741C29.8165 1.01461 29.9223 1.09936 29.986 1.19473C30.0495 1.27947 30.0813 1.39601 30.0813 1.54433V2.0423C30.0813 2.26479 29.9966 2.38141 29.8376 2.38141C29.7528 2.38141 29.6151 2.33891 29.4351 2.25417C28.831 1.97868 28.1528 1.84094 27.4007 1.84094C26.7968 1.84094 26.3199 1.93631 25.9914 2.13767C25.6631 2.33891 25.4935 2.64627 25.4935 3.08062C25.4935 3.37735 25.5994 3.63159 25.8113 3.83295C26.0232 4.03432 26.4153 4.23556 26.9769 4.41567L28.4814 4.89252C29.2442 5.13626 29.7952 5.47524 30.1237 5.90959C30.4522 6.34394 30.6112 6.84204 30.6112 7.39301C30.6112 7.84861 30.5157 8.26183 30.3356 8.62206C30.1449 8.98229 29.8906 9.30015 29.5621 9.55451C29.2336 9.81937 28.8416 10.0101 28.386 10.1479C27.9092 10.2962 27.4112 10.3703 26.8709 10.3703Z" fill="#1D282D"/>
<path d="M28.8734 15.5195C25.3875 18.0942 20.3228 19.461 15.9682 19.461C9.86516 19.461 4.36621 17.2042 0.212819 13.4534C-0.115663 13.1568 0.180946 12.7542 0.572924 12.9872C5.06542 15.5938 10.6069 17.1724 16.339 17.1724C20.2063 17.1724 24.4551 16.3672 28.3649 14.7143C28.9476 14.4493 29.4456 15.0958 28.8734 15.5195ZM30.325 13.8666C29.88 13.2945 27.3794 13.5911 26.2457 13.7289C25.9066 13.7714 25.8536 13.4746 26.161 13.2521C28.1529 11.8535 31.427 12.2562 31.8083 12.7223C32.1898 13.1991 31.7023 16.4731 29.8375 18.0413C29.5516 18.285 29.2761 18.1579 29.4032 17.84C29.8269 16.7909 30.77 14.4282 30.325 13.8666Z" fill="#1D282D"/>
</g>
<defs>
<clipPath id="clip0_1971_23125">
<rect width="32" height="19.1239" fill="white" transform="translate(0 0.399902)"/>
</clipPath>
</defs>
</svg>
