<svg width="65" height="16" viewBox="0 0 65 16" fill="none" xmlns="http://www.w3.org/2000/svg">
<g clip-path="url(#clip0_1965_19945)">
<path d="M7.56169 0.794678H0.773457C0.46892 0.794678 0.213501 1.04027 0.213501 1.34481V2.45486C0.213501 2.75943 0.46892 3.00505 0.773457 3.00505H2.43368C2.62033 3.00505 2.76768 3.16218 2.76768 3.34886V14.2926C2.76768 14.6069 3.01328 14.8525 3.32764 14.8525H5.0075C5.31204 14.8525 5.55763 14.6069 5.56746 14.2926V3.34886C5.56746 3.17205 5.71481 3.01486 5.90146 3.01486H7.58131C7.88588 3.01486 8.14131 2.76924 8.14131 2.45486V1.34481C8.12163 1.05992 7.87606 0.804496 7.56169 0.794678Z" fill="#1D282D"/>
<path d="M15.3229 5.84404C15.0086 4.93042 14.203 4.39992 13.2501 4.39992C12.5821 4.39992 11.9436 4.65536 11.4425 5.11711C11.4131 5.14654 11.3737 5.17604 11.3344 5.18586C11.3246 5.15636 11.3148 5.10723 11.3148 5.07779L11.305 1.3644C11.305 1.05986 11.0594 0.804443 10.7451 0.804443H9.35005C9.04549 0.804443 8.79993 1.05004 8.79993 1.3644V14.3023C8.79993 14.6069 9.04549 14.8524 9.35005 14.8623H10.7941C11.0987 14.8623 11.3443 14.6167 11.3541 14.3023V7.48461C11.3443 7.34711 11.3541 7.22917 11.3836 7.10148C11.4622 6.74786 11.7864 6.48261 12.1597 6.49242C12.4347 6.48261 12.7098 6.62992 12.8473 6.87554C12.9161 7.04254 12.9161 7.19973 12.9161 7.61229V14.2925C12.9161 14.597 13.1617 14.8524 13.4761 14.8524H14.9201C15.2247 14.8524 15.4801 14.6069 15.4801 14.2925V6.87554C15.4801 6.54154 15.4211 6.18786 15.3229 5.84404Z" fill="#1D282D"/>
<path d="M19.0454 10.3631H22.1399C22.4543 10.3631 22.6999 10.1174 22.6999 9.80312V7.38643C22.6999 6.61036 22.6016 6.26655 22.4248 5.91287C22.1104 5.27437 21.1674 4.41968 19.4973 4.41968C18.2988 4.41968 16.9529 4.85193 16.4323 6.08974C16.2653 6.54162 16.1769 7.0033 16.1769 7.48468V11.7187C16.1867 12.1706 16.2456 12.6225 16.3537 13.0646C16.6288 13.9979 17.3754 15.0588 19.458 15.0588H19.4777C20.8235 15.0588 22.1498 14.6561 22.5525 13.1825C22.6409 12.8779 22.6802 12.5636 22.6508 12.2492V11.8464C22.6409 11.5517 22.3953 11.3159 22.0908 11.3356H20.7351C20.4306 11.3454 20.185 11.5812 20.1751 11.8956C20.1751 12.1215 20.1555 12.3278 20.1064 12.5439C20.0376 12.8386 19.7724 13.0351 19.4678 13.0155C19.1437 13.0351 18.8489 12.8386 18.7605 12.5243C18.7016 12.3671 18.7016 12.2492 18.7016 11.8956V10.6971C18.7213 10.4907 18.8686 10.3631 19.0454 10.3631ZM18.7114 7.35699C18.7016 7.1703 18.7409 6.98368 18.8096 6.80687C18.9079 6.62018 19.0651 6.47287 19.458 6.46299C19.8019 6.46299 19.9591 6.60055 20.0474 6.76755C20.1162 6.93455 20.1457 7.10155 20.1457 7.27837V8.13305C20.1457 8.30987 19.9983 8.46705 19.8117 8.46705H19.0356C18.8588 8.46705 18.7016 8.31968 18.7016 8.13305V7.35699H18.7114Z" fill="#1D282D"/>
<path d="M30.8831 8.42782C30.5589 8.00538 30.1659 7.63207 29.7141 7.32757L27.2483 5.628C27.0616 5.51994 26.8946 5.37263 26.7472 5.20563C26.5213 4.89125 26.4919 4.30182 26.4919 4.05619V3.9285C26.5115 2.80863 26.9634 2.68088 27.5234 2.66125C28.4369 2.67107 28.5156 3.16225 28.545 3.54538V4.50813C28.545 4.8225 28.7906 5.06807 29.105 5.06807H30.7652C31.0796 5.06807 31.3251 4.8225 31.3251 4.50813V3.5945C31.3448 3.18188 31.2761 2.77913 31.0992 2.396C30.3231 0.490191 28.0637 0.500009 27.6511 0.500009C27.376 0.500009 24.9495 0.480366 24.1243 2.24863C23.8001 2.93632 23.7805 3.80082 23.7805 4.11519V4.19375C23.7805 5.38244 23.9868 5.94238 24.2815 6.44338C24.6352 7.023 24.9397 7.25875 25.4702 7.62225L27.877 9.24319C28.0931 9.38069 28.2798 9.5575 28.4369 9.754C28.6727 10.088 28.6924 10.5498 28.6924 10.8051V10.9623C28.6924 11.9153 28.6727 12.485 28.3584 12.7208C28.2012 12.8681 27.9752 12.9566 27.543 12.9566C27.2876 12.9664 27.042 12.8976 26.8161 12.7798C26.4427 12.5439 26.4132 12.1314 26.4132 11.6794V10.3139C26.4132 10.0094 26.1677 9.754 25.8533 9.754H24.2226C23.918 9.754 23.6626 9.99963 23.6626 10.3139V11.8858C23.6429 12.3868 23.7412 12.8976 23.9573 13.3495C24.1243 13.7424 24.3797 14.0764 24.7236 14.3319C25.5782 14.9999 26.6491 15.1374 27.6314 15.1374C30.0186 15.1473 31.001 14.0961 31.3251 12.9468C31.4725 12.3966 31.4725 11.9349 31.4725 10.8739V10.422C31.4627 9.69507 31.4136 9.11544 30.8831 8.42782Z" fill="#1D282D"/>
<path d="M36.7088 13.1335C36.6793 13.0352 36.581 12.9566 36.473 12.9468C36.4632 12.9468 36.4533 12.9468 36.4533 12.9468C36.3944 12.9566 36.3257 12.9566 36.2765 12.9566C35.8737 12.9566 35.4906 12.8879 35.3825 12.4851C35.3236 12.3378 35.3236 12.2788 35.3236 11.9743V6.68908C35.3236 6.51227 35.471 6.35508 35.6577 6.35508H36.1488C36.4533 6.35508 36.7088 6.10946 36.7088 5.80496V5.15658C36.7088 4.85202 36.4632 4.59658 36.1488 4.59658H35.6478C35.471 4.59658 35.3138 4.44927 35.3138 4.2724V2.32733C35.3138 2.02277 35.0682 1.76733 34.7538 1.76733H33.3196C33.015 1.76733 32.7596 2.01296 32.7596 2.32733V4.2724C32.7596 4.44927 32.6123 4.60646 32.4256 4.60646H32.072C31.7674 4.60646 31.512 4.85202 31.512 5.1664V5.82458C31.512 6.12915 31.7576 6.38452 32.072 6.38452H32.4551C32.6319 6.38452 32.7891 6.54171 32.7891 6.71852V12.7503C32.7891 13.1433 32.8087 13.5657 32.9954 13.9488C33.3097 14.6561 34.0858 14.941 35.4218 14.941H35.4513C35.7067 14.941 35.9622 14.9312 36.2274 14.8919C36.5418 14.833 36.7677 14.5678 36.7677 14.2534V13.4675C36.7775 13.3693 36.7481 13.2513 36.7088 13.1335Z" fill="#1D282D"/>
<path d="M42.4268 4.95994C42.4268 4.68488 42.2008 4.44907 41.9258 4.42944C41.9061 4.42944 41.8963 4.42944 41.8668 4.42944C41.2381 4.48838 40.6683 4.81257 40.295 5.32338C40.2361 5.39219 40.1968 5.46094 40.1476 5.53951V5.14657C40.1476 4.84207 39.9021 4.59644 39.5975 4.59644H38.1633C37.8587 4.59644 37.6033 4.84207 37.6033 5.15638V14.2827C37.6033 14.5873 37.8489 14.8426 38.1534 14.8426H39.5877C39.8922 14.8426 40.1476 14.5971 40.1476 14.2827V8.70276C40.1476 8.06426 40.1673 7.39619 40.7273 7.01307C40.9728 6.86576 41.2577 6.78713 41.5426 6.79694C41.6703 6.79694 41.7882 6.80682 41.916 6.82644C41.9454 6.83626 41.9847 6.83626 42.0141 6.83626C42.1222 6.83626 42.2303 6.78713 42.3089 6.70857C42.3875 6.62013 42.4366 6.50226 42.417 6.39419V4.95994H42.4268Z" fill="#1D282D"/>
<path d="M45.6681 10.3631H48.7626C49.0769 10.3631 49.3226 10.1076 49.3226 9.80312V7.38643C49.3226 6.61036 49.2243 6.26655 49.0475 5.91287C48.7331 5.27437 47.7901 4.41968 46.12 4.41968C44.9215 4.41968 43.5756 4.85193 43.0648 6.08974C42.888 6.54162 42.7996 7.0033 42.7996 7.48468V11.7187C42.8094 12.1706 42.8781 12.6225 42.9764 13.0646C43.2514 13.9979 44.0079 15.0686 46.1004 15.0588H46.12C47.456 15.0588 48.7724 14.6462 49.1752 13.1825C49.2538 12.8779 49.2832 12.5636 49.2734 12.2492V11.8464C49.2636 11.5517 49.018 11.3159 48.7135 11.3356H47.3578C47.0532 11.3356 46.8077 11.5812 46.7978 11.8956C46.7978 12.1215 46.7782 12.3278 46.7291 12.5439C46.6603 12.8386 46.3852 13.0351 46.0905 13.0155C45.7762 13.0351 45.4814 12.8386 45.3931 12.5341C45.3341 12.3769 45.3341 12.2591 45.3341 11.8956V10.6971C45.3439 10.4907 45.4814 10.3631 45.6681 10.3631ZM46.0807 6.47287C46.4344 6.47287 46.5817 6.61037 46.6701 6.77737C46.7389 6.94437 46.7782 7.11137 46.7684 7.28824V8.14287C46.7684 8.31968 46.6112 8.47687 46.4344 8.47687H45.6582C45.4814 8.47687 45.3242 8.32955 45.3242 8.15268V7.35699C45.3144 7.1703 45.3537 6.98368 45.4225 6.80687C45.5306 6.62999 45.6976 6.47287 46.0807 6.47287Z" fill="#1D282D"/>
<path d="M52.8692 10.3631H55.9637C56.2682 10.3631 56.5236 10.1174 56.5236 9.80312V7.38643C56.5236 6.61036 56.4254 6.26655 56.2486 5.91287C55.9342 5.27437 54.9911 4.41968 53.3211 4.41968C52.1226 4.41968 50.7767 4.85193 50.2659 6.08974C50.0989 6.54162 50.0105 7.0033 50.0105 7.48468V11.7187C50.0203 12.1706 50.0891 12.6225 50.1873 13.0646C50.4624 13.9979 51.2188 15.0686 53.3112 15.0588H53.3309C54.6669 15.0588 55.9834 14.6462 56.3861 13.1825C56.4647 12.8779 56.5138 12.5636 56.4844 12.2492V11.8464C56.4746 11.5517 56.2289 11.3159 55.9244 11.3356H54.5589C54.2544 11.3356 54.0087 11.5812 53.9989 11.8956C53.9989 12.1215 53.9793 12.3278 53.9302 12.5439C53.8614 12.8386 53.5962 13.0351 53.2916 13.0155C52.9772 13.0351 52.6826 12.8288 52.5941 12.5243C52.5352 12.3671 52.5352 12.2492 52.5352 11.8956V10.6971C52.545 10.5104 52.6826 10.3631 52.8692 10.3631ZM53.2818 6.47287C53.6354 6.47287 53.7828 6.61037 53.8712 6.77737C53.9498 6.94437 53.9793 7.11137 53.9695 7.28824C53.9695 7.30787 53.9695 7.3373 53.9695 7.35699V8.14287C53.9695 8.31968 53.8123 8.47687 53.6354 8.47687H52.8692C52.6924 8.47687 52.5352 8.32955 52.5352 8.14287V7.34718C52.5254 7.16049 52.5647 6.97386 52.6334 6.79699C52.7317 6.62999 52.8987 6.47287 53.2818 6.47287Z" fill="#1D282D"/>
<path d="M61.9168 13.1334C61.8873 13.0351 61.7891 12.9566 61.6811 12.9467H61.6614C61.6025 12.9566 61.5337 12.9566 61.4846 12.9566C61.0818 12.9566 60.6987 12.8877 60.5906 12.485C60.5317 12.3376 60.5317 12.2787 60.5317 11.9742V6.689C60.5317 6.51212 60.679 6.35494 60.8657 6.35494H61.3667C61.6713 6.35494 61.9266 6.10937 61.9266 5.795V5.14662C61.9266 4.83225 61.6811 4.58669 61.3667 4.58669H60.8657C60.6889 4.58669 60.5317 4.43931 60.5317 4.25269V2.29775C60.5317 1.99319 60.2861 1.73779 59.9717 1.73779H58.5473C58.2428 1.73779 57.9873 1.98337 57.9873 2.29775V4.24287C57.9873 4.41969 57.84 4.57687 57.6533 4.57687H57.3095C56.9951 4.57687 56.7495 4.82244 56.7495 5.13681V5.78519C56.7495 6.08975 56.9951 6.34512 57.3095 6.34512H57.6926C57.8695 6.34512 58.0266 6.50231 58.0266 6.67912V12.7109C58.0266 13.1039 58.0463 13.5263 58.2329 13.9094C58.5571 14.6167 59.3233 14.9016 60.6594 14.9016H60.679C60.9345 14.9016 61.1899 14.8918 61.4551 14.8525C61.7695 14.7936 61.9955 14.5284 61.9955 14.214V13.4281C61.966 13.3691 61.9561 13.2512 61.9168 13.1334Z" fill="#1D282D"/>
<path d="M63.6067 14.9606C63.2529 14.9507 62.9579 14.656 62.9679 14.3024C62.9779 13.9487 63.2723 13.654 63.626 13.6638C63.9798 13.6736 64.2748 13.9683 64.2648 14.322C64.2548 14.6658 63.9698 14.9606 63.626 14.9606H63.6067ZM63.6067 13.7129C63.2823 13.7129 63.0173 13.9683 63.0173 14.3024C63.0173 14.6265 63.2723 14.8917 63.6067 14.8917C63.9304 14.8917 64.196 14.6364 64.196 14.3122C64.206 13.988 63.9604 13.7227 63.636 13.7031L63.6067 13.7129ZM63.6067 13.8799C63.6754 13.8799 63.7442 13.8897 63.8129 13.9094C63.8917 13.9683 63.921 14.0469 63.921 14.1353C63.921 14.2336 63.8616 14.322 63.7735 14.3613L63.921 14.7051H63.7342L63.626 14.3907H63.5179V14.7051H63.351V13.8799H63.6067ZM63.4985 14.2434H63.6067C63.6948 14.2434 63.7442 14.2139 63.7442 14.1353C63.7442 14.0568 63.7148 14.0371 63.6166 14.0371H63.5085V14.2532H63.4985V14.2434Z" fill="#1D282D"/>
</g>
<defs>
<clipPath id="clip0_1965_19945">
<rect width="64.375" height="15" fill="white" transform="translate(0.259277 0.5)"/>
</clipPath>
</defs>
</svg>
