<svg width="60" height="16" viewBox="0 0 60 16" fill="none" xmlns="http://www.w3.org/2000/svg">
<path d="M33.5702 5.39277C33.5702 3.67426 33.5998 2.07425 33.6887 0.592773L29.1554 1.45203V1.86685L29.5998 1.92611C29.9258 1.95574 30.1332 2.07425 30.2517 2.25203C30.3702 2.45944 30.4591 2.75574 30.5184 3.20018C30.5776 4.05944 30.6369 6.015 30.6073 9.09648C30.6073 12.1483 30.5776 14.0743 30.5184 14.815C32.148 15.1706 33.4221 15.3187 34.3702 15.3187C36.148 15.3187 37.5406 14.815 38.548 13.778C39.5554 12.7706 40.0887 11.3483 40.0887 9.60018C40.0887 8.20759 39.7035 7.05203 38.9332 6.13351C38.1628 5.215 37.185 4.77055 36.0295 4.77055C35.2591 4.77055 34.4591 4.97796 33.5702 5.39277ZM33.6591 14.5187C33.5998 13.5706 33.5406 10.7261 33.5406 6.07425C33.8073 5.98537 34.1628 5.92611 34.6073 5.92611C35.3184 5.92611 35.8813 6.28166 36.2961 7.0224C36.711 7.76314 36.9184 8.65203 36.9184 9.77796C36.9184 11.1706 36.6813 12.2965 36.2073 13.2446C35.7332 14.1631 35.1406 14.6372 34.3998 14.6372C34.1628 14.578 33.9258 14.5483 33.6591 14.5187ZM12.148 0.88907H0.296143V1.48166L0.918365 1.54092C1.39244 1.62981 1.71836 1.80759 1.92577 2.07425C2.13318 2.37055 2.2517 2.84463 2.28133 3.49648C2.51836 6.69648 2.51836 9.68907 2.28133 12.4446C2.22207 13.0965 2.10355 13.5706 1.92577 13.8668C1.71836 14.1631 1.39244 14.3409 0.918365 14.4002L0.296143 14.4891V15.0817H7.94059V14.4891L7.14059 14.4298C6.94537 14.4135 6.75548 14.3578 6.58235 14.2661C6.40922 14.1745 6.25643 14.0487 6.13318 13.8965C5.92577 13.6002 5.80725 13.1261 5.77762 12.4743C5.68874 11.2891 5.62948 9.92611 5.62948 8.415L7.22948 8.44463C8.08874 8.47425 8.68133 9.12611 8.97762 10.4298H9.57022V5.60018H8.97762C8.68133 6.87425 8.11836 7.52611 7.22948 7.55574L5.62948 7.58537C5.62948 4.9187 5.68874 3.0224 5.77762 1.86685H8.11836C9.77762 1.86685 10.9036 2.93351 11.5554 5.06685L12.2665 4.85944L12.148 0.88907ZM10.7554 10.015C10.7554 11.5557 11.1998 12.8298 12.0591 13.8372C12.9184 14.8446 14.1924 15.3187 15.7924 15.3187C17.3924 15.3187 18.6961 14.815 19.6443 13.778C20.5924 12.7706 21.0369 11.4965 21.0369 9.95574C21.0369 8.415 20.5924 7.14092 19.7332 6.13351C18.8739 5.12611 17.5998 4.65203 15.9998 4.65203C14.3998 4.65203 13.0961 5.15574 12.148 6.19277C11.1998 7.20018 10.7554 8.47425 10.7554 10.015ZM17.3628 6.63722C17.7184 7.49648 17.8665 8.6224 17.8665 9.98537C17.8665 13.1261 17.2147 14.6668 15.9406 14.6668C15.2887 14.6668 14.785 14.2224 14.4295 13.3335C14.0739 12.4446 13.9258 11.3187 13.9258 9.98537C13.9258 6.87426 14.5776 5.33351 15.8517 5.33351C16.5036 5.30388 17.0073 5.74833 17.3628 6.63722ZM42.3998 13.8372C43.3776 14.815 44.6221 15.3187 46.1036 15.3187C47.0221 15.3187 47.8221 15.1409 48.5332 14.7557C49.2443 14.4002 49.8073 13.9557 50.1924 13.4224L49.8961 13.0668C49.2443 13.5706 48.5036 13.8076 47.6443 13.8076C46.4591 13.8076 45.5406 13.4224 44.9184 12.6224C44.2665 11.8224 43.9702 10.815 44.0295 9.51129H50.3702C50.3702 8.08907 50.0147 6.93351 49.2739 6.015C48.5332 5.12611 47.4961 4.68166 46.1628 4.68166C44.5036 4.68166 43.2295 5.215 42.311 6.25203C41.3924 7.28907 40.948 8.56314 40.948 10.0743C40.948 11.615 41.4221 12.8594 42.3998 13.8372ZM44.5924 6.40018C44.9184 5.68907 45.3332 5.33351 45.8961 5.33351C46.785 5.33351 47.2295 6.45944 47.2295 8.74092L44.0887 8.80018C44.1184 7.91129 44.2665 7.11129 44.5924 6.40018ZM58.3406 5.215C57.5406 4.85944 56.5332 4.65203 55.3184 4.65203C54.0739 4.65203 53.0961 4.97796 52.3554 5.60018C51.6147 6.2224 51.2295 6.99277 51.2295 7.91129C51.2295 8.71129 51.4665 9.33351 51.911 9.77796C52.3554 10.2224 53.0665 10.6076 53.985 10.9335C54.8147 11.2298 55.4073 11.5261 55.7036 11.7928C55.9998 12.0891 56.1776 12.415 56.1776 12.8594C56.1776 13.2743 56.0295 13.6594 55.7036 13.9557C55.4073 14.2817 54.9924 14.4298 54.4591 14.4298C53.1554 14.4298 52.1776 13.4817 51.4961 11.5854L50.9924 11.7335L51.111 14.6965C52.1776 15.1113 53.3628 15.3187 54.6665 15.3187C56.0295 15.3187 57.0665 15.0224 57.8369 14.4002C58.6073 13.8076 58.9924 12.9483 58.9924 11.8817C58.9924 11.1706 58.8147 10.578 58.4295 10.1335C58.0443 9.68907 57.4221 9.30388 56.5332 8.94833C55.5554 8.59277 54.8739 8.26685 54.5184 7.97055C54.1628 7.67425 53.985 7.3187 53.985 6.87426C53.985 6.42981 54.1036 6.07425 54.3702 5.77796C54.6369 5.48166 54.9628 5.36314 55.3776 5.36314C56.5628 5.36314 57.4221 6.2224 57.9554 7.91129L58.4591 7.76314L58.3406 5.215ZM29.8369 4.94833C29.4221 4.74092 28.9776 4.65203 28.4739 4.65203C27.9702 4.65203 27.4665 4.85944 26.9036 5.27425C26.3406 5.68907 25.9258 6.25203 25.5998 7.0224L25.6295 4.65203L21.1258 5.54092V5.95574L21.5702 5.98537C22.1332 6.04463 22.4591 6.48907 22.5184 7.28907C22.6961 9.12611 22.6961 11.0817 22.5184 13.1557C22.4591 13.9557 22.1332 14.3706 21.5702 14.4594L21.1258 14.5187V15.0817H27.4073V14.5187L26.6073 14.4594C26.0443 14.4002 25.7184 13.9557 25.6591 13.1557C25.4813 11.4372 25.4517 9.60018 25.5998 7.70388C25.7776 7.40759 26.1628 7.22981 26.7554 7.17055C27.348 7.11129 28.0295 7.28907 28.7406 7.70388L29.8369 4.94833Z" fill="#1D282D"/>
</svg>
