<svg width="1600" height="900" viewBox="0 0 1600 900" fill="none" xmlns="http://www.w3.org/2000/svg">
<g clip-path="url(#clip0_2682_185358)">
<path d="M97.5 32.5628H94.0781L94.6727 29.2933C94.7172 29.0486 94.6627 28.7962 94.5212 28.5917C94.3797 28.3871 94.1627 28.2472 93.918 28.2027C93.6733 28.1581 93.4209 28.2126 93.2164 28.3541C93.0118 28.4957 92.8719 28.7127 92.8273 28.9574L92.1719 32.5628H89.0781L89.6727 29.2933C89.6947 29.1721 89.6927 29.0478 89.6667 28.9274C89.6407 28.807 89.5913 28.693 89.5212 28.5917C89.4511 28.4904 89.3618 28.4039 89.2583 28.3372C89.1548 28.2704 89.0391 28.2247 88.918 28.2027C88.7968 28.1806 88.6725 28.1826 88.5521 28.2086C88.4317 28.2346 88.3176 28.2841 88.2164 28.3541C88.0118 28.4957 87.8719 28.7127 87.8273 28.9574L87.1719 32.5628H83.75C83.5014 32.5628 83.2629 32.6616 83.0871 32.8374C82.9113 33.0132 82.8125 33.2517 82.8125 33.5003C82.8125 33.749 82.9113 33.9874 83.0871 34.1632C83.2629 34.3391 83.5014 34.4378 83.75 34.4378H86.8313L86.2633 37.5628H82.5C82.2514 37.5628 82.0129 37.6616 81.8371 37.8374C81.6613 38.0132 81.5625 38.2517 81.5625 38.5003C81.5625 38.749 81.6613 38.9874 81.8371 39.1632C82.0129 39.3391 82.2514 39.4378 82.5 39.4378H85.9219L85.3273 42.7074C85.3048 42.8288 85.3064 42.9534 85.3322 43.0742C85.358 43.1949 85.4073 43.3094 85.4774 43.411C85.5476 43.5127 85.6371 43.5994 85.7408 43.6664C85.8446 43.7333 85.9605 43.7791 86.082 43.8011C86.1375 43.8103 86.1938 43.8142 86.25 43.8128C86.4695 43.8127 86.6821 43.7355 86.8505 43.5947C87.019 43.454 87.1327 43.2585 87.1719 43.0425L87.8281 39.4378H90.9219L90.3273 42.7074C90.3048 42.8288 90.3064 42.9534 90.3322 43.0742C90.358 43.1949 90.4073 43.3094 90.4774 43.411C90.5476 43.5127 90.6371 43.5994 90.7408 43.6664C90.8446 43.7333 90.9605 43.7791 91.082 43.8011C91.1377 43.8117 91.1942 43.8169 91.2508 43.8167C91.4703 43.8166 91.6828 43.7394 91.8513 43.5986C92.0198 43.4579 92.1335 43.2624 92.1727 43.0464L92.8281 39.4378H96.25C96.4986 39.4378 96.7371 39.3391 96.9129 39.1632C97.0887 38.9874 97.1875 38.749 97.1875 38.5003C97.1875 38.2517 97.0887 38.0132 96.9129 37.8374C96.7371 37.6616 96.4986 37.5628 96.25 37.5628H93.1687L93.7367 34.4378H97.5C97.7486 34.4378 97.9871 34.3391 98.1629 34.1632C98.3387 33.9874 98.4375 33.749 98.4375 33.5003C98.4375 33.2517 98.3387 33.0132 98.1629 32.8374C97.9871 32.6616 97.7486 32.5628 97.5 32.5628ZM91.2633 37.5628H88.1687L88.7367 34.4378H91.8313L91.2633 37.5628Z" fill="#1D282D"/>
<path d="M109.16 45.6738V32.8506H111.296L111.349 33.9404H111.401C111.606 33.5771 111.946 33.2754 112.421 33.0352C112.901 32.7891 113.44 32.666 114.038 32.666C115.21 32.666 116.15 33.0879 116.859 33.9316C117.568 34.7754 117.923 35.8887 117.923 37.2715V37.5527C117.923 38.9355 117.571 40.0518 116.868 40.9014C116.165 41.751 115.236 42.1758 114.082 42.1758C113.484 42.1758 112.957 42.0732 112.5 41.8682C112.043 41.6631 111.694 41.3818 111.454 41.0244V45.6738H109.16ZM111.454 39.0557C111.601 39.4189 111.853 39.7383 112.21 40.0137C112.567 40.2891 112.992 40.4268 113.484 40.4268C114.199 40.4268 114.727 40.1748 115.066 39.6709C115.412 39.1611 115.585 38.4873 115.585 37.6494V37.1836C115.585 36.3457 115.412 35.6748 115.066 35.1709C114.727 34.667 114.196 34.415 113.476 34.415C112.972 34.415 112.547 34.5498 112.201 34.8193C111.855 35.0889 111.606 35.4023 111.454 35.7598V39.0557ZM119.268 39.3105C119.268 38.3262 119.651 37.5762 120.419 37.0605C121.187 36.5449 122.159 36.2871 123.337 36.2871H125.244V35.7246C125.244 35.2617 125.124 34.8896 124.884 34.6084C124.649 34.3271 124.239 34.1865 123.653 34.1865C123.067 34.1865 122.648 34.3037 122.396 34.5381C122.15 34.7725 122.027 35.0566 122.027 35.3906V35.5049H119.777V35.3906C119.777 34.5938 120.141 33.9287 120.867 33.3955C121.594 32.8564 122.552 32.5869 123.741 32.5869C124.937 32.5869 125.865 32.8447 126.527 33.3604C127.195 33.876 127.529 34.667 127.529 35.7334V39.9258C127.529 40.3008 127.562 40.6582 127.626 40.998C127.69 41.332 127.778 41.6191 127.89 41.8594V42H125.648C125.572 41.8594 125.505 41.6777 125.446 41.4551C125.388 41.2324 125.35 41.0127 125.332 40.7959C125.139 41.1533 124.793 41.4727 124.295 41.7539C123.797 42.0293 123.173 42.167 122.423 42.167C121.526 42.167 120.776 41.9268 120.173 41.4463C119.569 40.9658 119.268 40.2539 119.268 39.3105ZM121.562 39.126C121.562 39.5713 121.688 39.9258 121.939 40.1895C122.197 40.4473 122.599 40.5762 123.144 40.5762C123.718 40.5762 124.21 40.3887 124.62 40.0137C125.036 39.6387 125.244 39.208 125.244 38.7217V37.7109H123.671C122.962 37.7109 122.432 37.8369 122.08 38.0889C121.734 38.335 121.562 38.6807 121.562 39.126ZM129.234 45.6475L129.252 43.916C129.404 43.9629 129.571 44.001 129.753 44.0303C129.935 44.0596 130.11 44.0742 130.28 44.0742C130.685 44.0742 131.033 43.9365 131.326 43.6611C131.625 43.3857 131.903 42.8203 132.161 41.9648H132.1L128.593 32.8506H130.878L132.838 38.3965C132.92 38.6191 132.984 38.8242 133.031 39.0117C133.078 39.1992 133.122 39.3838 133.163 39.5654H133.216C133.263 39.3838 133.31 39.1992 133.356 39.0117C133.409 38.8242 133.471 38.6191 133.541 38.3965L135.422 32.8506H137.505L133.761 43.0898C133.427 43.9922 132.99 44.6748 132.451 45.1377C131.912 45.6006 131.25 45.832 130.465 45.832C130.201 45.832 129.973 45.8174 129.779 45.7881C129.586 45.7588 129.404 45.7119 129.234 45.6475ZM138.639 42V32.8506H140.792L140.854 33.958H140.897C141.19 33.5479 141.565 33.2314 142.022 33.0088C142.485 32.7803 142.989 32.666 143.534 32.666C144.161 32.666 144.706 32.7979 145.169 33.0615C145.638 33.3193 145.98 33.7119 146.197 34.2393H146.232C146.566 33.7119 146.991 33.3193 147.507 33.0615C148.028 32.7979 148.591 32.666 149.194 32.666C150.12 32.666 150.858 32.9443 151.409 33.501C151.966 34.0518 152.244 34.9775 152.244 36.2783V42H149.95V36.208C149.95 35.5986 149.821 35.1562 149.563 34.8809C149.312 34.5996 148.939 34.459 148.447 34.459C148.025 34.4531 147.656 34.5703 147.34 34.8105C147.023 35.0508 146.771 35.3701 146.584 35.7686V42H144.29V36.2256C144.29 35.6045 144.161 35.1562 143.903 34.8809C143.646 34.5996 143.271 34.459 142.778 34.459C142.356 34.459 141.987 34.5762 141.671 34.8105C141.36 35.0391 141.114 35.3584 140.933 35.7686V42H138.639ZM153.967 37.5615V37.2803C153.967 35.874 154.377 34.7402 155.197 33.8789C156.023 33.0176 157.09 32.5869 158.396 32.5869C159.715 32.5869 160.74 32.9912 161.473 33.7998C162.205 34.6084 162.571 35.7188 162.571 37.1309V37.957H155.461V36.4629H160.304V36.2695C160.304 35.7188 160.14 35.25 159.812 34.8633C159.489 34.4766 159.023 34.2832 158.414 34.2832C157.705 34.2832 157.169 34.5498 156.806 35.083C156.442 35.6162 156.261 36.3135 156.261 37.1748V37.6406C156.261 38.502 156.454 39.1992 156.841 39.7324C157.228 40.2656 157.811 40.5322 158.59 40.5322C159.105 40.5322 159.551 40.4121 159.926 40.1719C160.301 39.9258 160.605 39.6387 160.84 39.3105L162.439 40.3564C162.152 40.8838 161.678 41.335 161.016 41.71C160.354 42.0791 159.554 42.2637 158.616 42.2637C157.151 42.2637 156.009 41.833 155.188 40.9717C154.374 40.1045 153.967 38.9678 153.967 37.5615ZM164.285 42V32.8506H166.447L166.5 33.9404H166.544C166.813 33.5596 167.186 33.252 167.66 33.0176C168.135 32.7773 168.662 32.6572 169.242 32.6572C170.174 32.6572 170.927 32.9238 171.501 33.457C172.081 33.9844 172.371 34.8955 172.371 36.1904V42H170.077V36.1729C170.077 35.5459 169.939 35.1035 169.664 34.8457C169.395 34.5879 169.011 34.459 168.513 34.459C168.091 34.459 167.707 34.5762 167.361 34.8105C167.021 35.0449 166.761 35.3613 166.579 35.7598V42H164.285ZM173.452 34.5381V32.8506H178.998V34.5381H173.452ZM174.911 39.416V33.7119L174.92 33.4658V30.5742H177.188V39.3369C177.188 39.7705 177.267 40.0693 177.425 40.2334C177.583 40.3975 177.817 40.4795 178.128 40.4795C178.269 40.4795 178.409 40.4648 178.55 40.4355C178.696 40.4004 178.837 40.3564 178.972 40.3037V41.9912C178.831 42.0615 178.635 42.123 178.383 42.1758C178.131 42.2285 177.855 42.2549 177.557 42.2549C176.754 42.2549 176.112 42.0264 175.632 41.5693C175.151 41.1123 174.911 40.3945 174.911 39.416ZM179.93 37.4473V35.4697H184.957V37.4473H179.93ZM186.68 42V32.8506H188.833L188.895 33.958H188.938C189.231 33.5479 189.606 33.2314 190.063 33.0088C190.526 32.7803 191.03 32.666 191.575 32.666C192.202 32.666 192.747 32.7979 193.21 33.0615C193.679 33.3193 194.021 33.7119 194.238 34.2393H194.273C194.607 33.7119 195.032 33.3193 195.548 33.0615C196.069 32.7979 196.632 32.666 197.235 32.666C198.161 32.666 198.899 32.9443 199.45 33.501C200.007 34.0518 200.285 34.9775 200.285 36.2783V42H197.991V36.208C197.991 35.5986 197.862 35.1562 197.604 34.8809C197.353 34.5996 196.98 34.459 196.488 34.459C196.066 34.4531 195.697 34.5703 195.381 34.8105C195.064 35.0508 194.812 35.3701 194.625 35.7686V42H192.331V36.2256C192.331 35.6045 192.202 35.1562 191.944 34.8809C191.687 34.5996 191.312 34.459 190.819 34.459C190.397 34.459 190.028 34.5762 189.712 34.8105C189.401 35.0391 189.155 35.3584 188.974 35.7686V42H186.68ZM202.008 37.5615V37.2803C202.008 35.874 202.418 34.7402 203.238 33.8789C204.064 33.0176 205.131 32.5869 206.438 32.5869C207.756 32.5869 208.781 32.9912 209.514 33.7998C210.246 34.6084 210.612 35.7188 210.612 37.1309V37.957H203.502V36.4629H208.345V36.2695C208.345 35.7188 208.181 35.25 207.853 34.8633C207.53 34.4766 207.064 34.2832 206.455 34.2832C205.746 34.2832 205.21 34.5498 204.847 35.083C204.483 35.6162 204.302 36.3135 204.302 37.1748V37.6406C204.302 38.502 204.495 39.1992 204.882 39.7324C205.269 40.2656 205.852 40.5322 206.631 40.5322C207.146 40.5322 207.592 40.4121 207.967 40.1719C208.342 39.9258 208.646 39.6387 208.881 39.3105L210.48 40.3564C210.193 40.8838 209.719 41.335 209.057 41.71C208.395 42.0791 207.595 42.2637 206.657 42.2637C205.192 42.2637 204.05 41.833 203.229 40.9717C202.415 40.1045 202.008 38.9678 202.008 37.5615ZM211.175 34.5381V32.8506H216.721V34.5381H211.175ZM212.634 39.416V33.7119L212.643 33.4658V30.5742H214.91V39.3369C214.91 39.7705 214.989 40.0693 215.147 40.2334C215.306 40.3975 215.54 40.4795 215.851 40.4795C215.991 40.4795 216.132 40.4648 216.272 40.4355C216.419 40.4004 216.56 40.3564 216.694 40.3037V41.9912C216.554 42.0615 216.357 42.123 216.105 42.1758C215.854 42.2285 215.578 42.2549 215.279 42.2549C214.477 42.2549 213.835 42.0264 213.354 41.5693C212.874 41.1123 212.634 40.3945 212.634 39.416ZM218.268 42V28.5879H220.553V34.0283C220.84 33.624 221.218 33.2959 221.687 33.0439C222.161 32.792 222.724 32.666 223.374 32.666C224.229 32.666 224.936 32.9355 225.492 33.4746C226.049 34.0078 226.327 34.8867 226.327 36.1113V42H224.033V36.2344C224.033 35.5957 223.89 35.1416 223.603 34.8721C223.321 34.5967 222.932 34.459 222.434 34.459C221.994 34.459 221.613 34.5791 221.291 34.8193C220.975 35.0596 220.731 35.3906 220.562 35.8125V42H218.268ZM228.076 37.5615V37.2803C228.076 35.8623 228.498 34.7256 229.342 33.8701C230.191 33.0146 231.305 32.5869 232.682 32.5869C234.059 32.5869 235.169 33.0146 236.013 33.8701C236.856 34.7256 237.278 35.8623 237.278 37.2803V37.5615C237.278 38.9795 236.856 40.1162 236.013 40.9717C235.169 41.8271 234.059 42.2549 232.682 42.2549C231.305 42.2549 230.191 41.8271 229.342 40.9717C228.498 40.1162 228.076 38.9795 228.076 37.5615ZM230.414 37.1836V37.6494C230.414 38.5283 230.607 39.2227 230.994 39.7324C231.381 40.2422 231.943 40.4971 232.682 40.4971C233.414 40.4971 233.974 40.2422 234.36 39.7324C234.747 39.2227 234.94 38.5283 234.94 37.6494V37.1836C234.94 36.3105 234.744 35.6191 234.352 35.1094C233.959 34.5996 233.402 34.3447 232.682 34.3447C231.955 34.3447 231.396 34.5996 231.003 35.1094C230.61 35.6191 230.414 36.3105 230.414 37.1836ZM238.588 37.5615V37.2803C238.588 35.9268 238.948 34.8223 239.669 33.9668C240.39 33.1055 241.336 32.6748 242.508 32.6748C243.111 32.6748 243.63 32.7803 244.063 32.9912C244.497 33.2021 244.834 33.4834 245.074 33.835V28.5879H247.359V42H245.206L245.145 40.8838H245.109C244.898 41.2471 244.562 41.5547 244.099 41.8066C243.642 42.0527 243.114 42.1758 242.517 42.1758C241.304 42.1758 240.346 41.7451 239.643 40.8838C238.939 40.0225 238.588 38.915 238.588 37.5615ZM240.926 37.6406C240.926 38.4492 241.102 39.1172 241.453 39.6445C241.805 40.166 242.341 40.4268 243.062 40.4268C243.554 40.4268 243.97 40.292 244.31 40.0225C244.655 39.7529 244.907 39.4395 245.065 39.082V35.751C244.913 35.3936 244.667 35.083 244.327 34.8193C243.993 34.5498 243.574 34.415 243.07 34.415C242.35 34.415 241.811 34.6787 241.453 35.2061C241.102 35.7275 240.926 36.3955 240.926 37.21V37.6406ZM249.064 37.4473V35.4697H254.092V37.4473H249.064ZM255.261 39.1699L257.502 39.1787V39.293C257.502 39.7559 257.663 40.0986 257.985 40.3213C258.308 40.5381 258.741 40.6465 259.286 40.6465C259.831 40.6465 260.25 40.5439 260.543 40.3389C260.836 40.1279 260.982 39.8496 260.982 39.5039C260.982 39.1523 260.842 38.8916 260.561 38.7217C260.279 38.5459 259.646 38.3496 258.662 38.1328C257.607 37.9102 256.819 37.5762 256.298 37.1309C255.776 36.6855 255.516 36.0908 255.516 35.3467C255.516 34.5088 255.853 33.8408 256.526 33.3428C257.206 32.8389 258.12 32.5869 259.269 32.5869C260.417 32.5869 261.334 32.8447 262.02 33.3604C262.711 33.8701 263.057 34.5703 263.057 35.4609V35.5576H260.824V35.4258C260.824 35.0449 260.695 34.749 260.438 34.5381C260.186 34.3213 259.793 34.2129 259.26 34.2129C258.732 34.2129 258.349 34.3037 258.108 34.4854C257.874 34.667 257.757 34.9072 257.757 35.2061C257.757 35.499 257.903 35.7334 258.196 35.9092C258.489 36.0791 259.134 36.2695 260.13 36.4805C261.179 36.7031 261.961 37.0371 262.477 37.4824C262.992 37.9219 263.25 38.54 263.25 39.3369C263.25 40.2334 262.916 40.9453 262.248 41.4727C261.58 41.9941 260.596 42.2549 259.295 42.2549C258 42.2549 257.004 41.9912 256.307 41.4639C255.609 40.9365 255.261 40.2012 255.261 39.2578V39.1699ZM264.586 39.3105C264.586 38.3262 264.97 37.5762 265.737 37.0605C266.505 36.5449 267.478 36.2871 268.655 36.2871H270.562V35.7246C270.562 35.2617 270.442 34.8896 270.202 34.6084C269.968 34.3271 269.558 34.1865 268.972 34.1865C268.386 34.1865 267.967 34.3037 267.715 34.5381C267.469 34.7725 267.346 35.0566 267.346 35.3906V35.5049H265.096V35.3906C265.096 34.5938 265.459 33.9287 266.186 33.3955C266.912 32.8564 267.87 32.5869 269.06 32.5869C270.255 32.5869 271.184 32.8447 271.846 33.3604C272.514 33.876 272.848 34.667 272.848 35.7334V39.9258C272.848 40.3008 272.88 40.6582 272.944 40.998C273.009 41.332 273.097 41.6191 273.208 41.8594V42H270.967C270.891 41.8594 270.823 41.6777 270.765 41.4551C270.706 41.2324 270.668 41.0127 270.65 40.7959C270.457 41.1533 270.111 41.4727 269.613 41.7539C269.115 42.0293 268.491 42.167 267.741 42.167C266.845 42.167 266.095 41.9268 265.491 41.4463C264.888 40.9658 264.586 40.2539 264.586 39.3105ZM266.88 39.126C266.88 39.5713 267.006 39.9258 267.258 40.1895C267.516 40.4473 267.917 40.5762 268.462 40.5762C269.036 40.5762 269.528 40.3887 269.938 40.0137C270.354 39.6387 270.562 39.208 270.562 38.7217V37.7109H268.989C268.28 37.7109 267.75 37.8369 267.398 38.0889C267.053 38.335 266.88 38.6807 266.88 39.126ZM274.711 39.3105C274.711 38.3262 275.095 37.5762 275.862 37.0605C276.63 36.5449 277.603 36.2871 278.78 36.2871H280.688V35.7246C280.688 35.2617 280.567 34.8896 280.327 34.6084C280.093 34.3271 279.683 34.1865 279.097 34.1865C278.511 34.1865 278.092 34.3037 277.84 34.5381C277.594 34.7725 277.471 35.0566 277.471 35.3906V35.5049H275.221V35.3906C275.221 34.5938 275.584 33.9287 276.311 33.3955C277.037 32.8564 277.995 32.5869 279.185 32.5869C280.38 32.5869 281.309 32.8447 281.971 33.3604C282.639 33.876 282.973 34.667 282.973 35.7334V39.9258C282.973 40.3008 283.005 40.6582 283.069 40.998C283.134 41.332 283.222 41.6191 283.333 41.8594V42H281.092C281.016 41.8594 280.948 41.6777 280.89 41.4551C280.831 41.2324 280.793 41.0127 280.775 40.7959C280.582 41.1533 280.236 41.4727 279.738 41.7539C279.24 42.0293 278.616 42.167 277.866 42.167C276.97 42.167 276.22 41.9268 275.616 41.4463C275.013 40.9658 274.711 40.2539 274.711 39.3105ZM277.005 39.126C277.005 39.5713 277.131 39.9258 277.383 40.1895C277.641 40.4473 278.042 40.5762 278.587 40.5762C279.161 40.5762 279.653 40.3887 280.063 40.0137C280.479 39.6387 280.688 39.208 280.688 38.7217V37.7109H279.114C278.405 37.7109 277.875 37.8369 277.523 38.0889C277.178 38.335 277.005 38.6807 277.005 39.126ZM284.757 39.1699L286.998 39.1787V39.293C286.998 39.7559 287.159 40.0986 287.481 40.3213C287.804 40.5381 288.237 40.6465 288.782 40.6465C289.327 40.6465 289.746 40.5439 290.039 40.3389C290.332 40.1279 290.479 39.8496 290.479 39.5039C290.479 39.1523 290.338 38.8916 290.057 38.7217C289.775 38.5459 289.143 38.3496 288.158 38.1328C287.104 37.9102 286.315 37.5762 285.794 37.1309C285.272 36.6855 285.012 36.0908 285.012 35.3467C285.012 34.5088 285.349 33.8408 286.022 33.3428C286.702 32.8389 287.616 32.5869 288.765 32.5869C289.913 32.5869 290.83 32.8447 291.516 33.3604C292.207 33.8701 292.553 34.5703 292.553 35.4609V35.5576H290.32V35.4258C290.32 35.0449 290.191 34.749 289.934 34.5381C289.682 34.3213 289.289 34.2129 288.756 34.2129C288.229 34.2129 287.845 34.3037 287.604 34.4854C287.37 34.667 287.253 34.9072 287.253 35.2061C287.253 35.499 287.399 35.7334 287.692 35.9092C287.985 36.0791 288.63 36.2695 289.626 36.4805C290.675 36.7031 291.457 37.0371 291.973 37.4824C292.488 37.9219 292.746 38.54 292.746 39.3369C292.746 40.2334 292.412 40.9453 291.744 41.4727C291.076 41.9941 290.092 42.2549 288.791 42.2549C287.496 42.2549 286.5 41.9912 285.803 41.4639C285.105 40.9365 284.757 40.2012 284.757 39.2578V39.1699ZM293.941 37.4473V35.4697H298.969V37.4473H293.941ZM300.138 39.1699L302.379 39.1787V39.293C302.379 39.7559 302.54 40.0986 302.862 40.3213C303.185 40.5381 303.618 40.6465 304.163 40.6465C304.708 40.6465 305.127 40.5439 305.42 40.3389C305.713 40.1279 305.859 39.8496 305.859 39.5039C305.859 39.1523 305.719 38.8916 305.438 38.7217C305.156 38.5459 304.523 38.3496 303.539 38.1328C302.484 37.9102 301.696 37.5762 301.175 37.1309C300.653 36.6855 300.393 36.0908 300.393 35.3467C300.393 34.5088 300.729 33.8408 301.403 33.3428C302.083 32.8389 302.997 32.5869 304.146 32.5869C305.294 32.5869 306.211 32.8447 306.896 33.3604C307.588 33.8701 307.934 34.5703 307.934 35.4609V35.5576H305.701V35.4258C305.701 35.0449 305.572 34.749 305.314 34.5381C305.062 34.3213 304.67 34.2129 304.137 34.2129C303.609 34.2129 303.226 34.3037 302.985 34.4854C302.751 34.667 302.634 34.9072 302.634 35.2061C302.634 35.499 302.78 35.7334 303.073 35.9092C303.366 36.0791 304.011 36.2695 305.007 36.4805C306.056 36.7031 306.838 37.0371 307.354 37.4824C307.869 37.9219 308.127 38.54 308.127 39.3369C308.127 40.2334 307.793 40.9453 307.125 41.4727C306.457 41.9941 305.473 42.2549 304.172 42.2549C302.877 42.2549 301.881 41.9912 301.184 41.4639C300.486 40.9365 300.138 40.2012 300.138 39.2578V39.1699ZM309.85 38.5723V32.8506H312.144V38.6074C312.144 39.2637 312.281 39.7266 312.557 39.9961C312.838 40.2598 313.225 40.3916 313.717 40.3916C314.15 40.3916 314.534 40.2686 314.868 40.0225C315.208 39.7764 315.469 39.4658 315.65 39.0908V32.8506H317.936V42H315.782L315.721 40.9014H315.677C315.39 41.2998 315.009 41.6133 314.534 41.8418C314.06 42.0703 313.529 42.1846 312.943 42.1846C312.029 42.1846 311.285 41.9062 310.711 41.3496C310.137 40.793 309.85 39.8672 309.85 38.5723ZM320.256 42V28.5879H322.55V33.8438C322.831 33.4746 323.191 33.1875 323.631 32.9824C324.07 32.7715 324.589 32.666 325.187 32.666C326.358 32.666 327.29 33.0967 327.981 33.958C328.679 34.8135 329.027 35.918 329.027 37.2715V37.5527C329.027 38.9121 328.679 40.0225 327.981 40.8838C327.284 41.7451 326.35 42.1758 325.178 42.1758C324.58 42.1758 324.038 42.0586 323.552 41.8242C323.071 41.584 322.726 41.2822 322.515 40.9189H322.471L322.409 42H320.256ZM322.55 39.0293C322.696 39.3984 322.939 39.7236 323.279 40.0049C323.625 40.2861 324.062 40.4268 324.589 40.4268C325.304 40.4268 325.831 40.1631 326.171 39.6357C326.511 39.1084 326.681 38.4404 326.681 37.6318V37.2012C326.681 36.3867 326.511 35.7217 326.171 35.2061C325.831 34.6846 325.298 34.4238 324.571 34.4238C324.062 34.4238 323.634 34.5645 323.288 34.8457C322.942 35.127 322.696 35.4492 322.55 35.8125V39.0293ZM330.284 39.1699L332.525 39.1787V39.293C332.525 39.7559 332.687 40.0986 333.009 40.3213C333.331 40.5381 333.765 40.6465 334.31 40.6465C334.854 40.6465 335.273 40.5439 335.566 40.3389C335.859 40.1279 336.006 39.8496 336.006 39.5039C336.006 39.1523 335.865 38.8916 335.584 38.7217C335.303 38.5459 334.67 38.3496 333.686 38.1328C332.631 37.9102 331.843 37.5762 331.321 37.1309C330.8 36.6855 330.539 36.0908 330.539 35.3467C330.539 34.5088 330.876 33.8408 331.55 33.3428C332.229 32.8389 333.144 32.5869 334.292 32.5869C335.44 32.5869 336.357 32.8447 337.043 33.3604C337.734 33.8701 338.08 34.5703 338.08 35.4609V35.5576H335.848V35.4258C335.848 35.0449 335.719 34.749 335.461 34.5381C335.209 34.3213 334.816 34.2129 334.283 34.2129C333.756 34.2129 333.372 34.3037 333.132 34.4854C332.897 34.667 332.78 34.9072 332.78 35.2061C332.78 35.499 332.927 35.7334 333.22 35.9092C333.513 36.0791 334.157 36.2695 335.153 36.4805C336.202 36.7031 336.984 37.0371 337.5 37.4824C338.016 37.9219 338.273 38.54 338.273 39.3369C338.273 40.2334 337.939 40.9453 337.271 41.4727C336.604 41.9941 335.619 42.2549 334.318 42.2549C333.023 42.2549 332.027 41.9912 331.33 41.4639C330.633 40.9365 330.284 40.2012 330.284 39.2578V39.1699ZM339.574 37.5615V37.2803C339.574 35.8506 339.981 34.7109 340.796 33.8613C341.616 33.0117 342.718 32.5869 344.101 32.5869C345.401 32.5869 346.392 32.918 347.071 33.5801C347.751 34.2363 348.108 35.0127 348.144 35.9092L348.152 36.0322H345.92V35.9355C345.92 35.4844 345.771 35.1035 345.472 34.793C345.173 34.4766 344.713 34.3184 344.092 34.3184C343.365 34.3184 342.82 34.582 342.457 35.1094C342.094 35.6367 341.912 36.3281 341.912 37.1836V37.6494C341.912 38.5049 342.088 39.1992 342.439 39.7324C342.797 40.2656 343.345 40.5322 344.083 40.5322C344.739 40.5322 345.208 40.3682 345.489 40.04C345.776 39.7119 345.92 39.3311 345.92 38.8975V38.8096H348.144V38.9062C348.144 39.8027 347.795 40.585 347.098 41.2529C346.4 41.9209 345.401 42.2549 344.101 42.2549C342.724 42.2549 341.625 41.8301 340.805 40.9805C339.984 40.125 339.574 38.9854 339.574 37.5615ZM349.787 42V32.8506H351.958L352.011 33.9229H352.055C352.26 33.5596 352.535 33.249 352.881 32.9912C353.232 32.7275 353.634 32.5957 354.085 32.5957C354.208 32.5957 354.334 32.6104 354.463 32.6396C354.598 32.6689 354.694 32.6953 354.753 32.7188V34.7051C354.642 34.6816 354.524 34.6641 354.401 34.6523C354.278 34.6348 354.144 34.626 353.997 34.626C353.563 34.626 353.177 34.752 352.837 35.0039C352.497 35.25 352.248 35.5664 352.09 35.9531V42H349.787ZM356.212 42V32.8506H358.515V42H356.212ZM356.001 30.1787C356.001 29.8213 356.118 29.5225 356.353 29.2822C356.593 29.042 356.93 28.9219 357.363 28.9219C357.803 28.9219 358.14 29.042 358.374 29.2822C358.608 29.5225 358.726 29.8213 358.726 30.1787C358.726 30.5361 358.608 30.8379 358.374 31.084C358.14 31.3242 357.803 31.4443 357.363 31.4443C356.924 31.4443 356.587 31.3242 356.353 31.084C356.118 30.8379 356.001 30.5361 356.001 30.1787ZM360.879 45.6738V32.8506H363.015L363.067 33.9404H363.12C363.325 33.5771 363.665 33.2754 364.14 33.0352C364.62 32.7891 365.159 32.666 365.757 32.666C366.929 32.666 367.869 33.0879 368.578 33.9316C369.287 34.7754 369.642 35.8887 369.642 37.2715V37.5527C369.642 38.9355 369.29 40.0518 368.587 40.9014C367.884 41.751 366.955 42.1758 365.801 42.1758C365.203 42.1758 364.676 42.0732 364.219 41.8682C363.762 41.6631 363.413 41.3818 363.173 41.0244V45.6738H360.879ZM363.173 39.0557C363.319 39.4189 363.571 39.7383 363.929 40.0137C364.286 40.2891 364.711 40.4268 365.203 40.4268C365.918 40.4268 366.445 40.1748 366.785 39.6709C367.131 39.1611 367.304 38.4873 367.304 37.6494V37.1836C367.304 36.3457 367.131 35.6748 366.785 35.1709C366.445 34.667 365.915 34.415 365.194 34.415C364.69 34.415 364.266 34.5498 363.92 34.8193C363.574 35.0889 363.325 35.4023 363.173 35.7598V39.0557ZM370.31 34.5381V32.8506H375.855V34.5381H370.31ZM371.769 39.416V33.7119L371.777 33.4658V30.5742H374.045V39.3369C374.045 39.7705 374.124 40.0693 374.282 40.2334C374.44 40.3975 374.675 40.4795 374.985 40.4795C375.126 40.4795 375.267 40.4648 375.407 40.4355C375.554 40.4004 375.694 40.3564 375.829 40.3037V41.9912C375.688 42.0615 375.492 42.123 375.24 42.1758C374.988 42.2285 374.713 42.2549 374.414 42.2549C373.611 42.2549 372.97 42.0264 372.489 41.5693C372.009 41.1123 371.769 40.3945 371.769 39.416ZM377.446 42V32.8506H379.749V42H377.446ZM377.235 30.1787C377.235 29.8213 377.353 29.5225 377.587 29.2822C377.827 29.042 378.164 28.9219 378.598 28.9219C379.037 28.9219 379.374 29.042 379.608 29.2822C379.843 29.5225 379.96 29.8213 379.96 30.1787C379.96 30.5361 379.843 30.8379 379.608 31.084C379.374 31.3242 379.037 31.4443 378.598 31.4443C378.158 31.4443 377.821 31.3242 377.587 31.084C377.353 30.8379 377.235 30.5361 377.235 30.1787ZM381.604 37.5615V37.2803C381.604 35.8623 382.025 34.7256 382.869 33.8701C383.719 33.0146 384.832 32.5869 386.209 32.5869C387.586 32.5869 388.696 33.0146 389.54 33.8701C390.384 34.7256 390.806 35.8623 390.806 37.2803V37.5615C390.806 38.9795 390.384 40.1162 389.54 40.9717C388.696 41.8271 387.586 42.2549 386.209 42.2549C384.832 42.2549 383.719 41.8271 382.869 40.9717C382.025 40.1162 381.604 38.9795 381.604 37.5615ZM383.941 37.1836V37.6494C383.941 38.5283 384.135 39.2227 384.521 39.7324C384.908 40.2422 385.471 40.4971 386.209 40.4971C386.941 40.4971 387.501 40.2422 387.888 39.7324C388.274 39.2227 388.468 38.5283 388.468 37.6494V37.1836C388.468 36.3105 388.271 35.6191 387.879 35.1094C387.486 34.5996 386.93 34.3447 386.209 34.3447C385.482 34.3447 384.923 34.5996 384.53 35.1094C384.138 35.6191 383.941 36.3105 383.941 37.1836ZM392.625 42V32.8506H394.787L394.84 33.9404H394.884C395.153 33.5596 395.525 33.252 396 33.0176C396.475 32.7773 397.002 32.6572 397.582 32.6572C398.514 32.6572 399.267 32.9238 399.841 33.457C400.421 33.9844 400.711 34.8955 400.711 36.1904V42H398.417V36.1729C398.417 35.5459 398.279 35.1035 398.004 34.8457C397.734 34.5879 397.351 34.459 396.853 34.459C396.431 34.459 396.047 34.5762 395.701 34.8105C395.361 35.0449 395.101 35.3613 394.919 35.7598V42H392.625Z" fill="#1D282D"/>
<path d="M436.692 33.9425L430.442 40.1925C430.384 40.2506 430.315 40.2967 430.239 40.3282C430.164 40.3597 430.082 40.3758 430 40.3758C429.918 40.3758 429.837 40.3597 429.761 40.3282C429.685 40.2967 429.616 40.2506 429.558 40.1925L423.308 33.9425C423.191 33.8253 423.125 33.6662 423.125 33.5003C423.125 33.3345 423.191 33.1754 423.308 33.0582C423.425 32.9409 423.584 32.875 423.75 32.875C423.916 32.875 424.075 32.9409 424.192 33.0582L430 38.8668L435.808 33.0582C435.866 33.0001 435.935 32.954 436.011 32.9226C436.087 32.8912 436.168 32.875 436.25 32.875C436.332 32.875 436.414 32.8912 436.489 32.9226C436.565 32.954 436.634 33.0001 436.692 33.0582C436.75 33.1162 436.796 33.1852 436.828 33.261C436.859 33.3369 436.875 33.4182 436.875 33.5003C436.875 33.5825 436.859 33.6638 436.828 33.7397C436.796 33.8155 436.75 33.8845 436.692 33.9425Z" fill="#1D282D"/>
<rect x="1540" y="20" width="32" height="32" rx="16" fill="#1D282D"/>
<path d="M1561 33.5C1561 35.7273 1559.09 37.5711 1556.62 37.8406V38.5C1556.62 38.6658 1556.56 38.8247 1556.44 38.9419C1556.32 39.0592 1556.17 39.125 1556 39.125C1555.83 39.125 1555.68 39.0592 1555.56 38.9419C1555.44 38.8247 1555.38 38.6658 1555.38 38.5V37.25C1555.38 37.0842 1555.44 36.9253 1555.56 36.8081C1555.68 36.6908 1555.83 36.625 1556 36.625C1558.07 36.625 1559.75 35.2234 1559.75 33.5C1559.75 31.7766 1558.07 30.375 1556 30.375C1553.93 30.375 1552.25 31.7766 1552.25 33.5C1552.25 33.6658 1552.18 33.8247 1552.07 33.9419C1551.95 34.0592 1551.79 34.125 1551.62 34.125C1551.46 34.125 1551.3 34.0592 1551.18 33.9419C1551.07 33.8247 1551 33.6658 1551 33.5C1551 31.0875 1553.24 29.125 1556 29.125C1558.76 29.125 1561 31.0875 1561 33.5ZM1556 41C1555.75 41 1555.51 41.0733 1555.31 41.2107C1555.1 41.348 1554.94 41.5432 1554.85 41.7716C1554.75 42.0001 1554.73 42.2514 1554.77 42.4939C1554.82 42.7363 1554.94 42.9591 1555.12 43.1339C1555.29 43.3087 1555.51 43.4278 1555.76 43.476C1556 43.5242 1556.25 43.4995 1556.48 43.4049C1556.71 43.3102 1556.9 43.15 1557.04 42.9445C1557.18 42.7389 1557.25 42.4972 1557.25 42.25C1557.25 41.9185 1557.12 41.6005 1556.88 41.3661C1556.65 41.1317 1556.33 41 1556 41Z" fill="white"/>
</g>
<defs>
<clipPath id="clip0_2682_185358">
<rect width="1600" height="900" fill="white"/>
</clipPath>
</defs>
</svg>
